# xmcd
#
# Track frame offsets:
#	200
#	10802
#	22872
#	36547
#	49467
#	63490
#	72175
#	82990
#	96192
#	106685
#	118955
#	125937
#	138627
#	150462
#	162715
#	173127
#	183852
#	199970
#	211507
#	224277
#
# Disc length: 3100 seconds
#
# Revision: 0
# Processed by: cddbd v1.4PL0 Copyright (c) Steve Scherf et al.
# Submitted via: audiograbber 1.81.02
#
DISCID=220c1a14
DTITLE=Ralph Stanley - Classic Bluegrass
DYEAR=1990
DGENRE=Bluegrass
TTITLE0=Love Me Darling Just Tonight
TTITLE1=Could You Love Me One More Time
TTITLE2=Flood Of '57
TTITLE3=The Fields Have Turned Brown
TTITLE4=A Little Boy Called Joe
TTITLE5=Loving You Too Well
TTITLE6=Train 45
TTITLE7=Poor Rambler
TTITLE8=Old Richmond Prison
TTITLE9=No School Bus In Heaven
TTITLE10=John Henry
TTITLE11=Little Maggie
TTITLE12=Your Worries And Troubles Are Mine
TTITLE13=Rank Stranger
TTITLE14=Lonesome And Blue
TTITLE15=Poison Love
TTITLE16=Little Glass Of Wine
TTITLE17=On And On
TTITLE18=I'm Lonesome Without You
TTITLE19=Gonna Paint The Town
EXTD=
EXTT0=
EXTT1=
EXTT2=
EXTT3=
EXTT4=
EXTT5=
EXTT6=
EXTT7=
EXTT8=
EXTT9=
EXTT10=
EXTT11=
EXTT12=
EXTT13=
EXTT14=
EXTT15=
EXTT16=
EXTT17=
EXTT18=
EXTT19=
PLAYORDER=
